<svg width="256" height="256" xmlns="http://www.w3.org/2000/svg">
	<rect width="100%" height="100%" fill="#f0f0f0"/>
	<path d="M128.00,18.00 L153.80,74.42 L214.00,59.42 L185.97,114.77 L235.24,152.48 L174.49,165.08 L175.73,227.11 L128.00,187.46 L80.27,227.11 L81.51,165.08 L20.76,152.48 L70.03,114.77 L42.00,59.42 L102.20,74.42 L128.00,18.00 Z" fill="#4a90e2" stroke="none"/>
	<path d="M128.00,238.00 L153.80,181.58 L214.00,196.58 L185.97,141.23 L235.24,103.52 L174.49,90.92 L175.73,28.89 L128.00,68.54 L80.27,28.89 L81.51,90.92 L20.76,103.52 L70.03,141.23 L42.00,196.58 L102.20,181.58 L128.00,238.00 Z" fill="#e24a90" stroke="none"/>
</svg>